<?xml version="1.0" standalone="no"?><!DOCTYPE svg PUBLIC "-//W3C//DTD SVG 1.1//EN" "http://www.w3.org/Graphics/SVG/1.1/DTD/svg11.dtd"><svg t="1612599858716" class="icon" viewBox="0 0 1024 1024" version="1.1" xmlns="http://www.w3.org/2000/svg" p-id="2111" xmlns:xlink="http://www.w3.org/1999/xlink" width="200" height="200"><defs><style type="text/css"></style></defs><path d="M742.5 534.9L326.7 950.7c-12.4 12.4-32.8 12.4-45.3 0-12.4-12.4-12.4-32.8 0-45.3l415.8-415.8c12.4-12.4 32.8-12.4 45.3 0s12.5 32.8 0 45.3z" fill="" p-id="2112"></path><path d="M326.7 73.3l415.8 415.8c12.4 12.4 12.4 32.8 0 45.3-12.4 12.4-32.8 12.4-45.3 0L281.5 118.6c-12.4-12.4-12.4-32.8 0-45.3 12.4-12.4 32.8-12.4 45.2 0z" fill="" p-id="2113"></path></svg>