<?xml version="1.0" standalone="no"?><!DOCTYPE svg PUBLIC "-//W3C//DTD SVG 1.1//EN" "http://www.w3.org/Graphics/SVG/1.1/DTD/svg11.dtd"><svg t="1612077244924" class="icon" viewBox="0 0 1024 1024" version="1.1" xmlns="http://www.w3.org/2000/svg" p-id="5200" xmlns:xlink="http://www.w3.org/1999/xlink" width="200" height="200"><defs><style type="text/css"></style></defs><path d="M232.727273 279.272727h-93.090909c-51.2 0-93.090909 41.890909-93.090909 93.090909v465.454546c0 51.2 41.890909 93.090909 93.090909 93.090909h93.090909c51.2 0 93.090909-41.890909 93.090909-93.090909V372.363636c0-51.2-41.890909-93.090909-93.090909-93.090909z m18.618182 558.545455c0 9.309091-9.309091 18.618182-18.618182 18.618182h-93.090909c-9.309091 0-18.618182-9.309091-18.618182-18.618182V372.363636c0-9.309091 9.309091-18.618182 18.618182-18.618181h93.090909c9.309091 0 18.618182 9.309091 18.618182 18.618181v465.454546zM558.545455 93.090909h-93.09091c-51.2 0-93.090909 41.890909-93.090909 93.090909v651.636364c0 51.2 41.890909 93.090909 93.090909 93.090909h93.09091c51.2 0 93.090909-41.890909 93.090909-93.090909V186.181818c0-51.2-41.890909-93.090909-93.090909-93.090909z m18.618181 744.727273c0 9.309091-9.309091 18.618182-18.618181 18.618182h-93.09091c-9.309091 0-18.618182-9.309091-18.618181-18.618182V186.181818c0-9.309091 9.309091-18.618182 18.618181-18.618182h93.09091c9.309091 0 18.618182 9.309091 18.618181 18.618182v651.636364zM884.363636 372.363636h-93.090909c-51.2 0-93.090909 41.890909-93.090909 93.090909v372.363637c0 51.2 41.890909 93.090909 93.090909 93.090909h93.090909c51.2 0 93.090909-41.890909 93.090909-93.090909v-372.363637c0-51.2-41.890909-93.090909-93.090909-93.090909z m18.618182 465.454546c0 9.309091-9.309091 18.618182-18.618182 18.618182h-93.090909c-9.309091 0-18.618182-9.309091-18.618182-18.618182v-372.363637c0-9.309091 9.309091-18.618182 18.618182-18.618181h93.090909c9.309091 0 18.618182 9.309091 18.618182 18.618181v372.363637z" p-id="5201"></path></svg>